<mxfile host="Electron" agent="Mozilla/5.0 (X11; Linux x86_64) AppleWebKit/537.36 (KHTML, like Gecko) draw.io/26.2.15 Chrome/134.0.6998.205 Electron/35.4.0 Safari/537.36" version="26.2.15">
  <diagram id="C5RBs43oDa-KdzZeNtuy" name="Page-1">
    <mxGraphModel dx="584" dy="741" grid="1" gridSize="10" guides="1" tooltips="1" connect="1" arrows="1" fold="1" page="1" pageScale="1" pageWidth="827" pageHeight="1169" math="0" shadow="0">
      <root>
        <mxCell id="WIyWlLk6GJQsqaUBKTNV-0" />
        <mxCell id="WIyWlLk6GJQsqaUBKTNV-1" parent="WIyWlLk6GJQsqaUBKTNV-0" />
        <mxCell id="Z2Q16Kun2Og9q_ITZoFF-4" style="edgeStyle=orthogonalEdgeStyle;rounded=0;orthogonalLoop=1;jettySize=auto;html=1;" parent="WIyWlLk6GJQsqaUBKTNV-1" source="WIyWlLk6GJQsqaUBKTNV-3" target="Z2Q16Kun2Og9q_ITZoFF-3" edge="1">
          <mxGeometry relative="1" as="geometry" />
        </mxCell>
        <mxCell id="WIyWlLk6GJQsqaUBKTNV-3" value="Начало" style="rounded=1;whiteSpace=wrap;html=1;fontSize=12;glass=0;strokeWidth=1;shadow=0;arcSize=50;" parent="WIyWlLk6GJQsqaUBKTNV-1" vertex="1">
          <mxGeometry x="160" y="80" width="120" height="40" as="geometry" />
        </mxCell>
        <mxCell id="Z2Q16Kun2Og9q_ITZoFF-6" style="edgeStyle=orthogonalEdgeStyle;rounded=0;orthogonalLoop=1;jettySize=auto;html=1;" parent="WIyWlLk6GJQsqaUBKTNV-1" source="Z2Q16Kun2Og9q_ITZoFF-3" target="Z2Q16Kun2Og9q_ITZoFF-5" edge="1">
          <mxGeometry relative="1" as="geometry" />
        </mxCell>
        <mxCell id="Z2Q16Kun2Og9q_ITZoFF-3" value="Получение периферии" style="rounded=0;whiteSpace=wrap;html=1;" parent="WIyWlLk6GJQsqaUBKTNV-1" vertex="1">
          <mxGeometry x="160" y="160" width="120" height="40" as="geometry" />
        </mxCell>
        <mxCell id="Z2Q16Kun2Og9q_ITZoFF-8" style="edgeStyle=orthogonalEdgeStyle;rounded=0;orthogonalLoop=1;jettySize=auto;html=1;" parent="WIyWlLk6GJQsqaUBKTNV-1" source="Z2Q16Kun2Og9q_ITZoFF-5" target="RdbHlZgmdKoLA0TEQhTK-0" edge="1">
          <mxGeometry relative="1" as="geometry" />
        </mxCell>
        <mxCell id="Z2Q16Kun2Og9q_ITZoFF-5" value="Настройки частот" style="rounded=0;whiteSpace=wrap;html=1;" parent="WIyWlLk6GJQsqaUBKTNV-1" vertex="1">
          <mxGeometry x="160" y="240" width="120" height="40" as="geometry" />
        </mxCell>
        <mxCell id="Z2Q16Kun2Og9q_ITZoFF-16" style="edgeStyle=orthogonalEdgeStyle;rounded=0;orthogonalLoop=1;jettySize=auto;html=1;exitX=0.5;exitY=1;exitDx=0;exitDy=0;" parent="WIyWlLk6GJQsqaUBKTNV-1" source="Z2Q16Kun2Og9q_ITZoFF-7" target="adC8yA0hUnK4ooyhV_KE-0" edge="1">
          <mxGeometry relative="1" as="geometry">
            <mxPoint x="280" y="380" as="sourcePoint" />
            <Array as="points">
              <mxPoint x="220" y="470" />
              <mxPoint x="311" y="470" />
              <mxPoint x="311" y="130" />
              <mxPoint x="400" y="130" />
            </Array>
            <mxPoint x="530" y="70" as="targetPoint" />
          </mxGeometry>
        </mxCell>
        <mxCell id="Z2Q16Kun2Og9q_ITZoFF-7" value="Инициализация UART" style="rounded=0;whiteSpace=wrap;html=1;" parent="WIyWlLk6GJQsqaUBKTNV-1" vertex="1">
          <mxGeometry x="160" y="400" width="120" height="40" as="geometry" />
        </mxCell>
        <mxCell id="Z2Q16Kun2Og9q_ITZoFF-15" style="edgeStyle=orthogonalEdgeStyle;rounded=0;orthogonalLoop=1;jettySize=auto;html=1;" parent="WIyWlLk6GJQsqaUBKTNV-1" source="Z2Q16Kun2Og9q_ITZoFF-9" edge="1">
          <mxGeometry relative="1" as="geometry">
            <mxPoint x="590" y="190.0000000000001" as="targetPoint" />
          </mxGeometry>
        </mxCell>
        <mxCell id="Z2Q16Kun2Og9q_ITZoFF-9" value="loop" style="shape=loopLimit;whiteSpace=wrap;html=1;" parent="WIyWlLk6GJQsqaUBKTNV-1" vertex="1">
          <mxGeometry x="540" y="100" width="100" height="50" as="geometry" />
        </mxCell>
        <mxCell id="Z2Q16Kun2Og9q_ITZoFF-10" value="loop" style="shape=loopLimit;whiteSpace=wrap;html=1;flipV=1;" parent="WIyWlLk6GJQsqaUBKTNV-1" vertex="1">
          <mxGeometry x="540" y="460" width="100" height="50" as="geometry" />
        </mxCell>
        <mxCell id="Z2Q16Kun2Og9q_ITZoFF-14" style="edgeStyle=orthogonalEdgeStyle;rounded=0;orthogonalLoop=1;jettySize=auto;html=1;exitX=0.5;exitY=1;exitDx=0;exitDy=0;" parent="WIyWlLk6GJQsqaUBKTNV-1" target="Z2Q16Kun2Og9q_ITZoFF-10" edge="1" source="RdbHlZgmdKoLA0TEQhTK-3">
          <mxGeometry relative="1" as="geometry">
            <mxPoint x="590" y="430" as="sourcePoint" />
          </mxGeometry>
        </mxCell>
        <mxCell id="RdbHlZgmdKoLA0TEQhTK-1" style="edgeStyle=orthogonalEdgeStyle;rounded=0;orthogonalLoop=1;jettySize=auto;html=1;" parent="WIyWlLk6GJQsqaUBKTNV-1" source="RdbHlZgmdKoLA0TEQhTK-0" target="Z2Q16Kun2Og9q_ITZoFF-7" edge="1">
          <mxGeometry relative="1" as="geometry" />
        </mxCell>
        <mxCell id="RdbHlZgmdKoLA0TEQhTK-0" value="Инициализация выводов" style="rounded=0;whiteSpace=wrap;html=1;" parent="WIyWlLk6GJQsqaUBKTNV-1" vertex="1">
          <mxGeometry x="160" y="320" width="120" height="40" as="geometry" />
        </mxCell>
        <mxCell id="RdbHlZgmdKoLA0TEQhTK-3" value="Вывод времени&amp;nbsp;&lt;div&gt;по UART&lt;/div&gt;" style="shape=parallelogram;perimeter=parallelogramPerimeter;whiteSpace=wrap;html=1;fixedSize=1;" parent="WIyWlLk6GJQsqaUBKTNV-1" vertex="1">
          <mxGeometry x="530" y="380" width="120" height="40" as="geometry" />
        </mxCell>
        <mxCell id="adC8yA0hUnK4ooyhV_KE-4" style="edgeStyle=orthogonalEdgeStyle;rounded=0;orthogonalLoop=1;jettySize=auto;html=1;" edge="1" parent="WIyWlLk6GJQsqaUBKTNV-1" source="adC8yA0hUnK4ooyhV_KE-0" target="adC8yA0hUnK4ooyhV_KE-1">
          <mxGeometry relative="1" as="geometry" />
        </mxCell>
        <mxCell id="adC8yA0hUnK4ooyhV_KE-0" value="Инициализация RTC" style="rounded=0;whiteSpace=wrap;html=1;" vertex="1" parent="WIyWlLk6GJQsqaUBKTNV-1">
          <mxGeometry x="340" y="160" width="120" height="40" as="geometry" />
        </mxCell>
        <mxCell id="adC8yA0hUnK4ooyhV_KE-5" style="edgeStyle=orthogonalEdgeStyle;rounded=0;orthogonalLoop=1;jettySize=auto;html=1;" edge="1" parent="WIyWlLk6GJQsqaUBKTNV-1" source="adC8yA0hUnK4ooyhV_KE-1" target="adC8yA0hUnK4ooyhV_KE-2">
          <mxGeometry relative="1" as="geometry" />
        </mxCell>
        <mxCell id="adC8yA0hUnK4ooyhV_KE-1" value="Установка времени" style="rounded=0;whiteSpace=wrap;html=1;" vertex="1" parent="WIyWlLk6GJQsqaUBKTNV-1">
          <mxGeometry x="340" y="240" width="120" height="40" as="geometry" />
        </mxCell>
        <mxCell id="adC8yA0hUnK4ooyhV_KE-6" style="edgeStyle=orthogonalEdgeStyle;rounded=0;orthogonalLoop=1;jettySize=auto;html=1;" edge="1" parent="WIyWlLk6GJQsqaUBKTNV-1" source="adC8yA0hUnK4ooyhV_KE-2" target="adC8yA0hUnK4ooyhV_KE-3">
          <mxGeometry relative="1" as="geometry" />
        </mxCell>
        <mxCell id="adC8yA0hUnK4ooyhV_KE-2" value="Запуск часов" style="rounded=0;whiteSpace=wrap;html=1;" vertex="1" parent="WIyWlLk6GJQsqaUBKTNV-1">
          <mxGeometry x="340" y="320" width="120" height="40" as="geometry" />
        </mxCell>
        <mxCell id="adC8yA0hUnK4ooyhV_KE-3" value="Считывание времени" style="rounded=0;whiteSpace=wrap;html=1;" vertex="1" parent="WIyWlLk6GJQsqaUBKTNV-1">
          <mxGeometry x="340" y="400" width="120" height="40" as="geometry" />
        </mxCell>
        <mxCell id="adC8yA0hUnK4ooyhV_KE-9" style="edgeStyle=orthogonalEdgeStyle;rounded=0;orthogonalLoop=1;jettySize=auto;html=1;" edge="1" parent="WIyWlLk6GJQsqaUBKTNV-1" source="adC8yA0hUnK4ooyhV_KE-7" target="adC8yA0hUnK4ooyhV_KE-8">
          <mxGeometry relative="1" as="geometry" />
        </mxCell>
        <mxCell id="adC8yA0hUnK4ooyhV_KE-7" value="Считывание текущего времени" style="rounded=0;whiteSpace=wrap;html=1;" vertex="1" parent="WIyWlLk6GJQsqaUBKTNV-1">
          <mxGeometry x="530" y="190" width="120" height="40" as="geometry" />
        </mxCell>
        <mxCell id="adC8yA0hUnK4ooyhV_KE-10" style="edgeStyle=orthogonalEdgeStyle;rounded=0;orthogonalLoop=1;jettySize=auto;html=1;" edge="1" parent="WIyWlLk6GJQsqaUBKTNV-1" source="adC8yA0hUnK4ooyhV_KE-8" target="RdbHlZgmdKoLA0TEQhTK-3">
          <mxGeometry relative="1" as="geometry" />
        </mxCell>
        <mxCell id="adC8yA0hUnK4ooyhV_KE-12" value="Да" style="edgeLabel;html=1;align=center;verticalAlign=middle;resizable=0;points=[];" vertex="1" connectable="0" parent="adC8yA0hUnK4ooyhV_KE-10">
          <mxGeometry x="-0.6067" relative="1" as="geometry">
            <mxPoint as="offset" />
          </mxGeometry>
        </mxCell>
        <mxCell id="adC8yA0hUnK4ooyhV_KE-8" value="Текущее время отличается от прошлого?" style="rhombus;whiteSpace=wrap;html=1;" vertex="1" parent="WIyWlLk6GJQsqaUBKTNV-1">
          <mxGeometry x="520" y="260" width="140" height="90" as="geometry" />
        </mxCell>
        <mxCell id="adC8yA0hUnK4ooyhV_KE-11" style="edgeStyle=orthogonalEdgeStyle;rounded=0;orthogonalLoop=1;jettySize=auto;html=1;entryX=1.01;entryY=0.62;entryDx=0;entryDy=0;entryPerimeter=0;" edge="1" parent="WIyWlLk6GJQsqaUBKTNV-1" source="adC8yA0hUnK4ooyhV_KE-8" target="Z2Q16Kun2Og9q_ITZoFF-10">
          <mxGeometry relative="1" as="geometry">
            <Array as="points">
              <mxPoint x="690" y="305" />
              <mxPoint x="690" y="479" />
            </Array>
          </mxGeometry>
        </mxCell>
        <mxCell id="adC8yA0hUnK4ooyhV_KE-13" value="Нет" style="edgeLabel;html=1;align=center;verticalAlign=middle;resizable=0;points=[];" vertex="1" connectable="0" parent="adC8yA0hUnK4ooyhV_KE-11">
          <mxGeometry x="-0.8801" y="3" relative="1" as="geometry">
            <mxPoint as="offset" />
          </mxGeometry>
        </mxCell>
        <mxCell id="adC8yA0hUnK4ooyhV_KE-14" style="edgeStyle=orthogonalEdgeStyle;rounded=0;orthogonalLoop=1;jettySize=auto;html=1;exitX=0.5;exitY=1;exitDx=0;exitDy=0;entryX=0.5;entryY=0;entryDx=0;entryDy=0;" edge="1" parent="WIyWlLk6GJQsqaUBKTNV-1" target="Z2Q16Kun2Og9q_ITZoFF-9">
          <mxGeometry relative="1" as="geometry">
            <mxPoint x="400" y="440" as="sourcePoint" />
            <Array as="points">
              <mxPoint x="400" y="470" />
              <mxPoint x="491" y="470" />
              <mxPoint x="491" y="70" />
              <mxPoint x="590" y="70" />
            </Array>
            <mxPoint x="580" y="160" as="targetPoint" />
          </mxGeometry>
        </mxCell>
      </root>
    </mxGraphModel>
  </diagram>
</mxfile>
